<mxfile host="app.diagrams.net" modified="2021-12-06T08:49:59.675Z" agent="5.0 (Windows NT 10.0; Win64; x64) AppleWebKit/537.36 (KHTML, like Gecko) Chrome/96.0.4664.45 Safari/537.36" etag="N7r9MfYinL50H_fqvP9r" version="15.9.1" type="github">
  <diagram name="Page-1" id="edf60f1a-56cd-e834-aa8a-f176f3a09ee4">
    <mxGraphModel dx="1038" dy="585" grid="1" gridSize="10" guides="1" tooltips="1" connect="1" arrows="1" fold="1" page="1" pageScale="1" pageWidth="1100" pageHeight="850" background="none" math="0" shadow="0">
      <root>
        <mxCell id="0" />
        <mxCell id="1" parent="0" />
        <mxCell id="hxnvGN7nutHtc66c366s-6" value="KAPTANPSOR ÜRETİM PLANLAMA ALGORİTMASI" style="text;html=1;strokeColor=none;fillColor=none;align=center;verticalAlign=middle;whiteSpace=wrap;rounded=0;" vertex="1" parent="1">
          <mxGeometry x="365" y="20" width="370" height="30" as="geometry" />
        </mxCell>
        <mxCell id="hxnvGN7nutHtc66c366s-13" style="edgeStyle=orthogonalEdgeStyle;rounded=0;orthogonalLoop=1;jettySize=auto;html=1;exitX=0.25;exitY=1;exitDx=0;exitDy=0;" edge="1" parent="1" source="hxnvGN7nutHtc66c366s-8">
          <mxGeometry relative="1" as="geometry">
            <mxPoint x="510" y="180" as="targetPoint" />
          </mxGeometry>
        </mxCell>
        <mxCell id="hxnvGN7nutHtc66c366s-8" value="PAZARLAMA&lt;br&gt;" style="rounded=0;whiteSpace=wrap;html=1;" vertex="1" parent="1">
          <mxGeometry x="530" y="107.5" width="100" height="30" as="geometry" />
        </mxCell>
        <mxCell id="hxnvGN7nutHtc66c366s-12" style="edgeStyle=orthogonalEdgeStyle;rounded=0;orthogonalLoop=1;jettySize=auto;html=1;exitX=0.75;exitY=1;exitDx=0;exitDy=0;" edge="1" parent="1" source="hxnvGN7nutHtc66c366s-9">
          <mxGeometry relative="1" as="geometry">
            <mxPoint x="490" y="180" as="targetPoint" />
          </mxGeometry>
        </mxCell>
        <mxCell id="hxnvGN7nutHtc66c366s-9" value="İNTERNET BİRİMİ" style="rounded=0;whiteSpace=wrap;html=1;" vertex="1" parent="1">
          <mxGeometry x="330" y="110" width="120" height="25" as="geometry" />
        </mxCell>
        <mxCell id="hxnvGN7nutHtc66c366s-15" style="edgeStyle=orthogonalEdgeStyle;rounded=0;orthogonalLoop=1;jettySize=auto;html=1;exitX=1;exitY=0.5;exitDx=0;exitDy=0;entryX=1;entryY=0.25;entryDx=0;entryDy=0;" edge="1" parent="1" source="hxnvGN7nutHtc66c366s-11" target="hxnvGN7nutHtc66c366s-8">
          <mxGeometry relative="1" as="geometry" />
        </mxCell>
        <mxCell id="hxnvGN7nutHtc66c366s-11" value="NUMUNE TALEP FORMU&amp;nbsp;&amp;nbsp;" style="rounded=1;whiteSpace=wrap;html=1;arcSize=50;" vertex="1" parent="1">
          <mxGeometry x="430" y="190" width="150" height="20" as="geometry" />
        </mxCell>
      </root>
    </mxGraphModel>
  </diagram>
</mxfile>
